<?xml version="1.0" encoding="UTF-8" standalone="no"?>
<!DOCTYPE svg PUBLIC "-//W3C//DTD SVG 1.1//EN" "http://www.w3.org/Graphics/SVG/1.1/DTD/svg11.dtd">
<svg width="100%" height="100%" viewBox="0 0 100 100" version="1.1" xmlns="http://www.w3.org/2000/svg" xmlns:xlink="http://www.w3.org/1999/xlink" xml:space="preserve" xmlns:serif="http://www.serif.com/" style="fill-rule:evenodd;clip-rule:evenodd;stroke-linejoin:round;stroke-miterlimit:2;">
    <g transform="matrix(0.0297203,0,0,0.0297203,50,50)">
        <g id="instagram-2-1-logo.svg" transform="matrix(1,0,0,1,-1682.35,-1682.35)">
            <path d="M853.2,3352.8C653.1,3343.7 544.4,3310.4 472.1,3282.2C376.3,3244.9 308,3200.5 236.1,3128.7C164.2,3056.9 119.7,2988.6 82.6,2892.8C54.4,2820.5 21.1,2711.8 12,2511.7C2,2295.4 0,2230.5 0,1682.5C0,1134.5 2.2,1069.7 11.9,853.2C21,653.1 54.5,544.6 82.5,472.1C119.8,376.3 164.3,308 236,236C307.8,164.2 376.1,119.6 472,82.5C544.3,54.3 653,21 853.1,11.9C1069.5,2 1134.5,0 1682.3,0C2230.3,0 2295.1,2.2 2511.6,11.9C2711.7,21 2820.2,54.5 2892.7,82.5C2988.5,119.6 3056.8,164.2 3128.7,236C3200.6,307.8 3244.9,376.2 3282.2,472C3310.4,544.3 3343.7,653 3352.8,853.1C3362.7,1069.6 3364.7,1134.4 3364.7,1682.4C3364.7,2230.2 3362.7,2295.2 3352.8,2511.7C3343.7,2711.8 3310.2,2820.5 3282.2,2892.8C3244.9,2988.6 3200.5,3056.9 3128.7,3128.7C3056.9,3200.5 2988.5,3244.9 2892.7,3282.2C2820.4,3310.4 2711.7,3343.7 2511.6,3352.8C2295.3,3362.7 2230.3,3364.7 1682.3,3364.7C1134.5,3364.7 1069.5,3362.8 853.2,3352.8" style="fill:url(#_Radial1);fill-rule:nonzero;"/>
            <path d="M853.2,3352.8C653.1,3343.7 544.4,3310.4 472.1,3282.2C376.3,3244.9 308,3200.5 236.1,3128.7C164.2,3056.9 119.7,2988.6 82.6,2892.8C54.4,2820.5 21.1,2711.8 12,2511.7C2,2295.4 0,2230.5 0,1682.5C0,1134.5 2.2,1069.7 11.9,853.2C21,653.1 54.5,544.6 82.5,472.1C119.8,376.3 164.3,308 236,236C307.8,164.2 376.1,119.6 472,82.5C544.3,54.3 653,21 853.1,11.9C1069.5,2 1134.5,0 1682.3,0C2230.3,0 2295.1,2.2 2511.6,11.9C2711.7,21 2820.2,54.5 2892.7,82.5C2988.5,119.6 3056.8,164.2 3128.7,236C3200.6,307.8 3244.9,376.2 3282.2,472C3310.4,544.3 3343.7,653 3352.8,853.1C3362.7,1069.6 3364.7,1134.4 3364.7,1682.4C3364.7,2230.2 3362.7,2295.2 3352.8,2511.7C3343.7,2711.8 3310.2,2820.5 3282.2,2892.8C3244.9,2988.6 3200.5,3056.9 3128.7,3128.7C3056.9,3200.5 2988.5,3244.9 2892.7,3282.2C2820.4,3310.4 2711.7,3343.7 2511.6,3352.8C2295.3,3362.7 2230.3,3364.7 1682.3,3364.7C1134.5,3364.7 1069.5,3362.8 853.2,3352.8" style="fill:url(#_Radial2);fill-rule:nonzero;"/>
            <path d="M1269.25,1689.52C1269.25,1459.41 1455.74,1272.82 1685.85,1272.82C1915.96,1272.82 2102.55,1459.41 2102.55,1689.52C2102.55,1919.63 1915.96,2106.22 1685.85,2106.22C1455.74,2106.22 1269.25,1919.63 1269.25,1689.52M1043.99,1689.52C1043.99,2044.02 1331.35,2331.38 1685.85,2331.38C2040.35,2331.38 2327.71,2044.02 2327.71,1689.52C2327.71,1335.02 2040.35,1047.66 1685.85,1047.66C1331.35,1047.66 1044,1335 1044,1689.52M2203.13,1022.21C2203.13,1022.23 2203.13,1022.25 2203.13,1022.27C2203.13,1104.56 2270.84,1172.27 2353.13,1172.27C2435.42,1172.27 2503.13,1104.56 2503.13,1022.27C2503.13,940.005 2435.45,872.303 2353.19,872.27L2353.13,872.27C2270.88,872.308 2203.2,939.96 2203.13,1022.21M1180.85,2707C1058.98,2701.45 992.74,2681.15 948.72,2664C890.36,2641.28 848.72,2614.22 804.94,2570.5C761.16,2526.78 734.06,2485.18 711.44,2426.82C694.28,2382.82 673.98,2316.56 668.44,2194.69C662.38,2062.93 661.17,2023.35 661.17,1689.54C661.17,1355.73 662.48,1316.26 668.44,1184.39C673.99,1062.52 694.44,996.39 711.44,952.26C734.16,893.9 761.22,852.26 804.94,808.48C848.66,764.7 890.26,737.6 948.72,714.98C992.72,697.82 1058.98,677.52 1180.85,671.98C1312.61,665.92 1352.19,664.71 1685.85,664.71C2019.51,664.71 2059.13,666 2191,672C2312.87,677.55 2379,698 2423.13,715C2481.49,737.62 2523.13,764.78 2566.91,808.5C2610.69,852.22 2637.69,893.92 2660.41,952.28C2677.57,996.28 2697.87,1062.54 2703.41,1184.41C2709.47,1316.28 2710.68,1355.75 2710.68,1689.56C2710.68,2023.37 2709.47,2062.84 2703.41,2194.71C2697.86,2316.58 2677.46,2382.82 2660.41,2426.84C2637.69,2485.2 2610.63,2526.84 2566.91,2570.52C2523.19,2614.2 2481.49,2641.3 2423.13,2664.02C2379.13,2681.18 2312.87,2701.48 2191,2707.02C2059.24,2713.08 2019.66,2714.29 1685.85,2714.29C1352.04,2714.29 1312.57,2713.08 1180.85,2707.02M1170.5,447.09C1037.43,453.15 946.5,474.25 867.09,505.15C784.9,537.06 715.23,579.87 645.66,649.33C576.09,718.79 533.39,788.47 501.48,870.76C470.58,950.22 449.48,1041.1 443.42,1174.17C437.26,1307.45 435.85,1350.06 435.85,1689.52C435.85,2028.98 437.26,2071.59 443.42,2204.87C449.48,2337.95 470.58,2428.82 501.48,2508.28C533.39,2590.47 576.1,2660.28 645.66,2729.71C715.22,2799.14 784.8,2841.89 867.09,2873.89C946.65,2904.79 1037.43,2925.89 1170.5,2931.95C1303.85,2938.01 1346.39,2939.52 1685.85,2939.52C2025.31,2939.52 2067.92,2938.11 2201.2,2931.95C2334.28,2925.89 2425.15,2904.79 2504.61,2873.89C2586.8,2841.89 2656.47,2799.17 2726.04,2729.71C2795.61,2660.25 2838.22,2590.47 2870.22,2508.28C2901.12,2428.82 2922.32,2337.94 2928.28,2204.87C2934.34,2071.49 2935.75,2028.98 2935.75,1689.52C2935.75,1350.06 2934.34,1307.45 2928.28,1174.17C2922.22,1041.09 2901.12,950.17 2870.22,870.76C2838.22,788.57 2795.5,718.9 2726.04,649.33C2656.58,579.76 2586.8,537.06 2504.71,505.15C2425.15,474.25 2334.27,453.05 2201.3,447.09C2068,441 2025.41,439.52 1686,439.52C1346.59,439.52 1303.9,440.93 1170.55,447.09" style="fill:white;fill-rule:nonzero;"/>
        </g>
        <g id="instagram-2-1-logo.svg1" serif:id="instagram-2-1-logo.svg">
        </g>
    </g>
    <defs>
        <radialGradient id="_Radial1" cx="0" cy="0" r="1" gradientUnits="userSpaceOnUse" gradientTransform="matrix(4271.92,0,0,4271.92,217.76,3290.99)"><stop offset="0" style="stop-color:rgb(250,143,33);stop-opacity:1"/><stop offset="0.09" style="stop-color:rgb(250,143,33);stop-opacity:1"/><stop offset="0.78" style="stop-color:rgb(216,45,126);stop-opacity:1"/><stop offset="1" style="stop-color:rgb(216,45,126);stop-opacity:1"/></radialGradient>
        <radialGradient id="_Radial2" cx="0" cy="0" r="1" gradientUnits="userSpaceOnUse" gradientTransform="matrix(3759.33,0,0,3759.33,2330.61,3182.95)"><stop offset="0" style="stop-color:rgb(140,58,170);stop-opacity:0"/><stop offset="0.64" style="stop-color:rgb(140,58,170);stop-opacity:0"/><stop offset="1" style="stop-color:rgb(140,58,170);stop-opacity:1"/></radialGradient>
    </defs>
</svg>
