<?xml version="1.0" encoding="UTF-8" standalone="no"?>
<!DOCTYPE svg PUBLIC "-//W3C//DTD SVG 1.1//EN" "http://www.w3.org/Graphics/SVG/1.1/DTD/svg11.dtd">
<svg width="100%" height="100%" viewBox="0 0 88 100" version="1.1" xmlns="http://www.w3.org/2000/svg" xmlns:xlink="http://www.w3.org/1999/xlink" xml:space="preserve" xmlns:serif="http://www.serif.com/" style="fill-rule:evenodd;clip-rule:evenodd;stroke-linejoin:round;stroke-miterlimit:2;">
    <g transform="matrix(0.04,0,0,0.04,43.58,50)">
        <g id="tiktok-1.svg" transform="matrix(1,0,0,1,-1089.5,-1250)">
            <clipPath id="_clip1">
                <rect x="0" y="0" width="2179" height="2500"/>
            </clipPath>
            <g clip-path="url(#_clip1)">
                <g transform="matrix(1.25571,0,0,1.25571,-20.703,-419.9)">
                    <path d="M731.173,1130.71L731.173,1054.85C703.026,1051.13 674.671,1049.2 646.279,1049.08C299.043,1049.08 16.487,1313.51 16.487,1638.54C16.487,1837.89 122.975,2014.42 285.362,2121.11C176.628,2012.27 116.135,1868.83 116.237,1719.81C116.237,1399.43 390.727,1138.16 731.173,1130.71" style="fill:rgb(0,242,234);fill-rule:nonzero;"/>
                    <path d="M747.866,1967.96C894.683,1967.96 1014.39,1851.93 1019.86,1707.26L1020.37,416.123L1257.74,416.123C1252.66,389.176 1250.08,361.816 1250.04,334.394L925.874,334.394L925.313,1625.58C919.902,1770.15 800.09,1886.18 653.324,1886.18C609.294,1886.18 565.916,1875.5 526.926,1855.04C578.14,1925.9 660.436,1967.96 747.866,1967.96M1701.05,854.379L1701.05,782.604C1613.92,782.701 1528.6,757.497 1455.51,710.064C1519.66,783.382 1605.84,834.02 1701.11,854.379" style="fill:rgb(0,242,234);fill-rule:nonzero;"/>
                    <path d="M1445.86,728.39C1374.6,647.883 1335.21,544.009 1335.18,436.492L1248.56,436.492C1271.46,556.697 1342.86,662.329 1445.86,728.39M645.666,1358.69C495.582,1358.9 373.983,1479.22 373.83,1627.72C374.149,1727.92 430.456,1819.96 519.524,1865.86C486.139,1820.38 468.109,1765.41 468.067,1708.99C468.22,1560.44 589.819,1440.06 739.903,1439.91C767.98,1439.91 794.78,1444.51 820.152,1452.37L820.152,1125.65C793.563,1121.91 766.753,1119.97 739.903,1119.83C735.206,1119.83 730.561,1120.14 725.915,1120.19L725.915,1371.15C699.947,1362.97 672.891,1358.77 645.666,1358.69" style="fill:rgb(255,0,79);fill-rule:nonzero;"/>
                    <path d="M1657.87,895.933L1657.87,1145.26C1496.63,1145.5 1339.29,1095.31 1207.97,1001.76L1207.97,1653.5C1207.97,1979.04 940.985,2243.88 612.842,2243.88C485.985,2243.88 368.368,2204.17 271.732,2136.83C384.446,2257.16 542.203,2325.46 707.078,2325.3C1035.27,2325.3 1302.26,2060.46 1302.26,1734.98L1302.26,1083.18C1433.58,1176.71 1590.92,1226.88 1752.15,1226.63L1752.15,905.888C1720.46,905.878 1688.86,902.542 1657.87,895.933" style="fill:rgb(255,0,79);fill-rule:nonzero;"/>
                    <path d="M1240.59,1632.06L1240.59,979.245C1375.73,1073.19 1536.52,1123.38 1701.11,1123L1701.11,873.369C1604.33,853.34 1516.44,802.885 1450.35,729.411C1344.58,662.69 1271.58,556.866 1248.4,436.492L1006.07,436.492L1005.56,1723.69C999.946,1867.86 877.684,1983.53 727.855,1983.53C638.315,1983.43 554.391,1941.57 502.219,1871.02C410.637,1824.41 353.206,1732.37 353.155,1632.01C353.309,1482.95 477.715,1362.21 631.373,1362.01C659.96,1362.01 687.424,1366.61 713.459,1374.52L713.459,1122.69C384.142,1130.2 118.585,1392.23 118.585,1713.53C118.585,1868.98 180.814,2010.43 282.197,2116.05C385.134,2186.1 506.864,2223.46 631.373,2223.21C967.275,2223.21 1240.59,1958.01 1240.59,1632.06" style="fill:white;fill-rule:nonzero;"/>
                </g>
            </g>
        </g>
        <g id="tiktok-1.svg1" serif:id="tiktok-1.svg">
        </g>
    </g>
</svg>
