<?xml version="1.0" encoding="UTF-8" standalone="no"?>
<!DOCTYPE svg PUBLIC "-//W3C//DTD SVG 1.1//EN" "http://www.w3.org/Graphics/SVG/1.1/DTD/svg11.dtd">
<svg width="100%" height="100%" viewBox="0 0 100 83" version="1.1" xmlns="http://www.w3.org/2000/svg" xmlns:xlink="http://www.w3.org/1999/xlink" xml:space="preserve" xmlns:serif="http://www.serif.com/" style="fill-rule:evenodd;clip-rule:evenodd;stroke-linejoin:round;stroke-miterlimit:2;">
    <g transform="matrix(0.403226,0,0,0.403226,50,41.129)">
        <g id="Twitter-logo.svg" transform="matrix(1,0,0,1,-124,-102)">
            <g id="Logo_1_">
                <path id="white_background" d="M221.95,51.29C222.1,53.46 222.1,55.63 222.1,57.82C222.1,124.55 171.3,201.51 78.41,201.51L78.41,201.47C50.97,201.51 24.1,193.65 1,178.83C4.99,179.31 9,179.55 13.02,179.56C35.76,179.58 57.85,171.95 75.74,157.9C54.13,157.49 35.18,143.4 28.56,122.83C36.13,124.29 43.93,123.99 51.36,121.96C27.8,117.2 10.85,96.5 10.85,72.46L10.85,71.82C17.87,75.73 25.73,77.9 33.77,78.14C11.58,63.31 4.74,33.79 18.14,10.71C43.78,42.26 81.61,61.44 122.22,63.47C118.15,45.93 123.71,27.55 136.83,15.22C157.17,-3.9 189.16,-2.92 208.28,17.41C219.59,15.18 230.43,11.03 240.35,5.15C236.58,16.84 228.69,26.77 218.15,33.08C228.16,31.9 237.94,29.22 247.15,25.13C240.37,35.29 231.83,44.14 221.95,51.29Z" style="fill:rgb(29,155,240);fill-rule:nonzero;"/>
            </g>
        </g>
        <g id="Twitter-logo.svg1" serif:id="Twitter-logo.svg">
        </g>
    </g>
</svg>
