<?xml version="1.0" encoding="UTF-8" standalone="no"?>
<!DOCTYPE svg PUBLIC "-//W3C//DTD SVG 1.1//EN" "http://www.w3.org/Graphics/SVG/1.1/DTD/svg11.dtd">
<svg width="100%" height="100%" viewBox="0 0 100 78" version="1.1" xmlns="http://www.w3.org/2000/svg" xmlns:xlink="http://www.w3.org/1999/xlink" xml:space="preserve" xmlns:serif="http://www.serif.com/" style="fill-rule:evenodd;clip-rule:evenodd;stroke-linejoin:round;stroke-miterlimit:2;">
    <g transform="matrix(0.390625,0,0,0.390625,8.54504e-08,-11.1328)">
        <path d="M216.856,45.097C200.285,37.343 182.566,31.708 164.042,28.5C161.767,32.613 159.109,38.145 157.276,42.546C137.584,39.585 118.073,39.585 98.743,42.546C96.911,38.145 94.193,32.613 91.897,28.5C73.353,31.708 55.613,37.364 39.042,45.138C5.618,95.647 -3.443,144.901 1.087,193.456C23.256,210.011 44.74,220.068 65.862,226.649C71.077,219.471 75.728,211.841 79.735,203.8C72.104,200.901 64.795,197.322 57.889,193.168C59.721,191.811 61.513,190.391 63.245,188.931C105.367,208.633 151.135,208.633 192.755,188.931C194.506,190.391 196.298,191.811 198.11,193.168C191.184,197.343 183.855,200.921 176.224,203.821C180.23,211.841 184.862,219.492 190.097,226.669C211.239,220.088 232.743,210.032 254.912,193.456C260.228,137.168 245.831,88.366 216.856,45.097ZM85.474,163.595C72.829,163.595 62.459,151.79 62.459,137.415C62.459,123.04 72.608,111.215 85.474,111.215C98.341,111.215 108.71,123.019 108.489,137.415C108.509,151.79 98.341,163.595 85.474,163.595ZM170.525,163.595C157.88,163.595 147.511,151.79 147.511,137.415C147.511,123.04 157.659,111.215 170.525,111.215C183.392,111.215 193.761,123.019 193.54,137.415C193.54,151.79 183.392,163.595 170.525,163.595Z" style="fill:rgb(88,101,242);fill-rule:nonzero;"/>
    </g>
</svg>
