<?xml version="1.0" encoding="UTF-8" standalone="no"?>
<!DOCTYPE svg PUBLIC "-//W3C//DTD SVG 1.1//EN" "http://www.w3.org/Graphics/SVG/1.1/DTD/svg11.dtd">
<svg width="100%" height="100%" viewBox="0 0 100 100" version="1.1" xmlns="http://www.w3.org/2000/svg" xmlns:xlink="http://www.w3.org/1999/xlink" xml:space="preserve" xmlns:serif="http://www.serif.com/" style="fill-rule:evenodd;clip-rule:evenodd;stroke-linejoin:round;stroke-miterlimit:2;">
    <g transform="matrix(0.116182,0,0,0.116182,0,-5.07012)">
        <circle cx="430.36" cy="474" r="430.36" style="fill:rgb(255,69,0);"/>
    </g>
    <g transform="matrix(0.116182,0,0,0.116182,0,-5.07012)">
        <path d="M717.437,474C717.437,473.971 717.437,473.943 717.437,473.914C717.437,439.59 689.193,411.347 654.869,411.347C654.841,411.347 654.812,411.347 654.783,411.347C637.839,411.347 622.427,418.019 611.132,428.807C567.997,397.993 508.933,377.967 443.197,375.401L471.954,240.847L565.422,260.873C566.52,284.592 586.334,303.51 610.079,303.51C634.599,303.51 654.778,283.335 654.783,258.815C654.767,234.313 634.61,214.155 610.107,214.139C593.069,214.184 577.482,223.976 570.045,239.306L465.799,217.222C462.716,216.705 459.634,217.222 457.576,218.763C455.01,220.304 453.469,222.869 452.962,225.952L421.113,375.908C354.353,377.967 294.265,397.993 250.614,429.324C238.862,418.099 223.214,411.84 206.962,411.864C206.933,411.863 206.905,411.863 206.876,411.863C172.552,411.863 144.309,440.107 144.309,474.431C144.309,474.459 144.309,474.488 144.309,474.517C144.309,500.191 159.711,521.758 181.288,531.522C180.24,537.802 179.725,544.158 179.747,550.524C179.747,647.065 292.217,725.647 430.877,725.647C569.538,725.647 682.008,647.582 682.008,550.524C682.008,544.359 681.491,537.678 680.467,531.522C702.941,521.249 717.426,498.711 717.437,474ZM287.076,518.676C287.092,494.17 307.255,474.01 331.761,474C356.411,474 376.437,494.026 376.437,518.676C376.437,543.326 356.411,563.361 331.761,563.361C307.102,563.869 287.076,543.326 287.076,518.676ZM537.182,637.31C506.368,668.125 447.821,670.183 430.877,670.183C413.417,670.183 354.87,667.608 324.563,637.31C322.35,635.15 321.102,632.185 321.102,629.092C321.102,626 322.35,623.035 324.563,620.874C326.723,618.662 329.689,617.413 332.781,617.413C335.873,617.413 338.838,618.662 340.999,620.874C360.518,640.393 401.604,647.065 430.877,647.065C460.151,647.065 501.744,640.393 520.746,620.874C522.907,618.662 525.872,617.413 528.964,617.413C532.057,617.413 535.022,618.662 537.182,620.874C541.271,625.561 541.271,632.623 537.182,637.31ZM528.959,563.869C504.31,563.869 484.284,543.843 484.284,519.193C484.284,494.543 504.31,474.517 528.959,474.517C553.465,474.527 573.629,494.687 573.645,519.193C573.645,543.326 553.619,563.869 528.959,563.869Z" style="fill:white;fill-rule:nonzero;"/>
    </g>
</svg>
